<!-- <svg width="14" height="15" viewBox="0 0 14 15" fill="none" xmlns="http://www.w3.org/2000/svg">
<path d="M4.15217 1.55141C3.96412 1.52242 3.95619 1.51902 4.04468 1.5055C4.21427 1.47958 4.61472 1.51491 4.89067 1.58012C5.53489 1.73232 6.12109 2.12221 6.74683 2.81466L6.91307 2.99862L7.15088 2.96062C8.15274 2.8006 9.17194 2.92778 10.0244 3.31918C10.2589 3.42686 10.6287 3.64121 10.6749 3.69629C10.6896 3.71384 10.7166 3.82684 10.7349 3.94742C10.7982 4.36458 10.7665 4.68434 10.6382 4.92317C10.5683 5.05313 10.5644 5.09432 10.6114 5.20554C10.6489 5.2943 10.7534 5.35999 10.8569 5.35985C11.0687 5.35956 11.2967 5.0192 11.4024 4.54561L11.4444 4.3575L11.5275 4.45109C11.9835 4.96459 12.3417 5.66488 12.4032 6.16335L12.4192 6.29332L12.3426 6.17517C12.2107 5.97186 12.0781 5.83346 11.9084 5.72183C11.6024 5.52062 11.2789 5.45215 10.4222 5.40727C9.64839 5.36675 9.21045 5.30106 8.77621 5.16032C8.03738 4.9209 7.66493 4.60204 6.78729 3.4576C6.39748 2.94928 6.15654 2.66804 5.91687 2.44155C5.37228 1.92691 4.83716 1.65701 4.15217 1.55141Z" fill="white"/>
<path d="M10.8494 2.68637C10.8689 2.34575 10.9153 2.12108 11.0088 1.9159C11.0458 1.83469 11.0804 1.76822 11.0858 1.76822C11.0911 1.76822 11.075 1.82816 11.05 1.90142C10.9821 2.10054 10.9709 2.3729 11.0177 2.68978C11.0771 3.09184 11.1109 3.14985 11.5385 3.58416C11.739 3.78788 11.9723 4.0448 12.0568 4.15511L12.2106 4.35568L12.0568 4.21234C11.8688 4.03705 11.4364 3.6952 11.3409 3.64633C11.2768 3.61356 11.2673 3.61413 11.2278 3.65321C11.1914 3.68922 11.1837 3.74333 11.1787 3.99915C11.1708 4.39786 11.1161 4.65377 10.9842 4.90965C10.9128 5.04805 10.9015 5.01851 10.9661 4.8623C11.0143 4.74566 11.0192 4.69439 11.0189 4.30842C11.0181 3.53291 10.9255 3.34647 10.3823 3.02709C10.2447 2.94618 10.0179 2.8295 9.87839 2.76778C9.73887 2.70606 9.62805 2.6523 9.63208 2.64828C9.64746 2.63307 10.1772 2.78675 10.3905 2.86828C10.7077 2.98954 10.76 3.00526 10.7985 2.99063C10.8244 2.98082 10.8369 2.90608 10.8494 2.68637Z" fill="white"/>
<path d="M4.51745 4.01304C4.13569 3.49066 3.89948 2.68973 3.95062 2.091L3.96643 1.90572L4.05333 1.92148C4.21652 1.95106 4.49789 2.05515 4.62964 2.13469C4.9912 2.35293 5.14773 2.64027 5.30697 3.37811C5.35362 3.59423 5.41482 3.8388 5.44298 3.9216C5.48831 4.05487 5.65962 4.36617 5.7989 4.56834C5.89922 4.71395 5.83258 4.78295 5.61082 4.76305C5.27215 4.73267 4.8134 4.41799 4.51745 4.01304Z" fill="white"/>
<path d="M10.3863 7.90088C8.60224 7.18693 7.97389 6.56721 7.97389 5.52157C7.97389 5.36769 7.97922 5.24179 7.98571 5.24179C7.99221 5.24179 8.06124 5.29257 8.1391 5.35465C8.50088 5.64305 8.906 5.76623 10.0275 5.92885C10.6875 6.02455 11.0589 6.10185 11.4015 6.21477C12.4904 6.57371 13.1641 7.30212 13.3248 8.29426C13.3715 8.58255 13.3441 9.12317 13.2684 9.4081C13.2087 9.63315 13.0263 10.0388 12.9779 10.0544C12.9645 10.0587 12.9514 10.0076 12.9479 9.93809C12.9296 9.56554 12.7402 9.20285 12.4221 8.93116C12.0604 8.62227 11.5745 8.37633 10.3863 7.90088Z" fill="white"/>
<path d="M9.13385 8.19748C9.11149 8.06527 9.07272 7.89643 9.04769 7.82228L9.00217 7.68748L9.08672 7.7818C9.20374 7.91234 9.2962 8.07937 9.37457 8.30185C9.43438 8.47165 9.44111 8.52215 9.44066 8.79807C9.4402 9.06896 9.43273 9.12575 9.3775 9.27859C9.29042 9.51959 9.18233 9.69048 9.00097 9.87391C8.67507 10.2036 8.25607 10.3861 7.65143 10.4618C7.54633 10.4749 7.24 10.4971 6.97069 10.511C6.292 10.5461 5.84531 10.6186 5.44393 10.7587C5.38623 10.7788 5.3347 10.7911 5.32947 10.7859C5.31323 10.7698 5.58651 10.6079 5.81223 10.4998C6.1305 10.3474 6.44733 10.2643 7.15719 10.1468C7.50785 10.0887 7.86998 10.0183 7.96194 9.99029C8.83033 9.72566 9.27671 9.04276 9.13385 8.19748Z" fill="white"/>
<path d="M9.95169 9.64109C9.71465 9.13463 9.66022 8.64564 9.79008 8.18961C9.80399 8.14088 9.82632 8.101 9.83976 8.101C9.85319 8.101 9.90913 8.13105 9.96404 8.16777C10.0733 8.24086 10.2924 8.36395 10.876 8.68023C11.6043 9.0749 12.0196 9.3805 12.302 9.72965C12.5493 10.0354 12.7023 10.3837 12.776 10.8084C12.8177 11.0489 12.7932 11.6277 12.7311 11.8699C12.5353 12.6337 12.0802 13.2336 11.4311 13.5837C11.336 13.635 11.2506 13.6771 11.2414 13.6773C11.2321 13.6775 11.2668 13.5899 11.3184 13.4827C11.5367 13.029 11.5616 12.5877 11.3965 12.0965C11.2954 11.7957 11.0893 11.4287 10.6732 10.8084C10.1893 10.0873 10.0707 9.89539 9.95169 9.64109Z" fill="white"/>
<path d="M3.25046 12.3737C3.91252 11.8181 4.73629 11.4234 5.48666 11.3022C5.81005 11.25 6.34877 11.2707 6.64823 11.3469C7.12824 11.469 7.55763 11.7425 7.78094 12.0683C7.99918 12.3867 8.09281 12.6642 8.19029 13.2816C8.22875 13.5252 8.27057 13.7697 8.28323 13.8251C8.35644 14.1451 8.4989 14.4008 8.67544 14.5293C8.95583 14.7333 9.43865 14.7459 9.91362 14.5618C9.99423 14.5305 10.0642 14.5089 10.0691 14.5138C10.0864 14.5308 9.84719 14.6899 9.67847 14.7737C9.45143 14.8864 9.2709 14.93 9.03102 14.93C8.59601 14.93 8.23486 14.7101 7.9335 14.2616C7.87419 14.1733 7.7409 13.909 7.63729 13.6741C7.3191 12.9528 7.16199 12.7331 6.79255 12.4926C6.47104 12.2834 6.05641 12.2459 5.74449 12.3979C5.33475 12.5976 5.22043 13.118 5.51389 13.4478C5.63053 13.5789 5.84803 13.6919 6.02588 13.7139C6.35861 13.7551 6.64455 13.5035 6.64455 13.1696C6.64455 12.9528 6.56071 12.8291 6.34966 12.7344C6.0614 12.6051 5.75156 12.7563 5.75304 13.0254C5.75368 13.1402 5.80396 13.2122 5.91971 13.2643C5.99397 13.2977 5.99569 13.3003 5.93514 13.2878C5.67066 13.2333 5.6087 12.9164 5.82135 12.706C6.07667 12.4535 6.60461 12.5649 6.78591 12.9097C6.86208 13.0545 6.87091 13.3429 6.80451 13.517C6.6559 13.9068 6.22256 14.1117 5.78297 14.0002C5.48368 13.9242 5.36181 13.842 5.00097 13.4726C4.37395 12.8306 4.13053 12.7062 3.22657 12.566L3.05335 12.5391L3.25046 12.3737Z" fill="white"/>
<path fill-rule="evenodd" clip-rule="evenodd" d="M0.308383 0.883984C2.40235 3.40996 3.84457 4.45213 4.00484 4.67231C4.13717 4.85412 4.08737 5.01757 3.86067 5.14567C3.7346 5.21689 3.47541 5.28905 3.34564 5.28905C3.19887 5.28905 3.14847 5.23278 3.14847 5.23278C3.06337 5.15255 3.01544 5.16658 2.5784 4.39555C1.97166 3.45981 1.46389 2.68357 1.45004 2.67057C1.41801 2.64052 1.41856 2.64153 2.51654 4.59413C2.69394 5.0011 2.55182 5.15049 2.55182 5.20845C2.55182 5.32636 2.51946 5.38834 2.37311 5.55059C2.12914 5.8211 2.02008 6.12505 1.94135 6.7541C1.8531 7.45926 1.60492 7.95737 0.917156 8.80989C0.514562 9.30893 0.448686 9.4004 0.3471 9.60153C0.219144 9.85482 0.183961 9.99669 0.169701 10.3165C0.154629 10.6547 0.183983 10.8732 0.287934 11.1965C0.378939 11.4796 0.473932 11.6665 0.716778 12.0403C0.926352 12.3629 1.04702 12.6027 1.04702 12.6965C1.04702 12.7711 1.06136 12.7712 1.38611 12.6983C2.16328 12.5239 2.79434 12.2171 3.14925 11.8411C3.36891 11.6084 3.42048 11.4799 3.42215 11.1611C3.42325 10.9525 3.41587 10.9088 3.35914 10.7888C3.2668 10.5935 3.09869 10.4311 2.72817 10.1794C2.2427 9.84953 2.03534 9.58398 1.97807 9.21878C1.93108 8.91913 1.98559 8.70771 2.25416 8.14825C2.53214 7.56916 2.60103 7.32239 2.64763 6.73869C2.67773 6.36158 2.71941 6.21286 2.82842 6.09348C2.94212 5.969 3.04447 5.92684 3.32584 5.88863C3.78457 5.82635 4.07667 5.70839 4.31677 5.48849C4.52505 5.29772 4.61221 5.11391 4.62558 4.8372L4.63574 4.62747L4.51934 4.49259C4.09783 4.00411 0.0261003 0.5 0.000160437 0.5C-0.00538105 0.5 0.133325 0.672804 0.308383 0.883984ZM1.28364 10.6992C1.37894 10.5314 1.3283 10.3158 1.16889 10.2104C1.01827 10.1109 0.78428 10.1578 0.78428 10.2875C0.78428 10.3271 0.806303 10.3559 0.855937 10.3813C0.939514 10.424 0.945581 10.4721 0.879823 10.5703C0.81323 10.6698 0.818604 10.7573 0.894991 10.8167C1.0181 10.9125 1.19237 10.8598 1.28364 10.6992Z" fill="white"/>
<path fill-rule="evenodd" clip-rule="evenodd" d="M4.92523 5.99865C4.70988 6.06439 4.50054 6.29124 4.43574 6.5291C4.39621 6.67421 4.41864 6.92875 4.47785 7.00736C4.57351 7.13433 4.66602 7.16778 4.91651 7.16603C5.40693 7.16263 5.83327 6.95358 5.88284 6.69224C5.92347 6.47801 5.73622 6.18112 5.4783 6.05078C5.34521 5.98355 5.06217 5.95688 4.92523 5.99865ZM5.49853 6.44422C5.57416 6.33741 5.54107 6.22198 5.41245 6.14391C5.1675 5.99525 4.79708 6.11827 4.79708 6.34826C4.79708 6.46274 4.99025 6.58765 5.16731 6.58765C5.28516 6.58765 5.44644 6.5178 5.49853 6.44422Z" fill="white"/>
</svg> -->


<svg width="564" height="649" viewBox="0 0 564 649" fill="none" xmlns="http://www.w3.org/2000/svg">
<mask id="path-1-inside-1" fill="white">
<path fill-rule="evenodd" clip-rule="evenodd" d="M372.246 462.206C416.423 433.725 440.174 363.896 440.174 294.01C440.174 203.187 381.052 129.56 308.122 129.56C268.527 129.56 226.479 142.213 204.082 177.336C190.329 198.903 185.75 230.655 181.352 261.157C180.395 267.792 179.447 274.367 178.415 280.766C143.301 326.007 108.075 396.857 116.174 442.06C124.014 485.822 172.174 524.064 239.174 512.06C277.371 505.216 340.687 487.385 372.246 462.206Z"/>
</mask>
<path fill-rule="evenodd" clip-rule="evenodd" d="M372.246 462.206C416.423 433.725 440.174 363.896 440.174 294.01C440.174 203.187 381.052 129.56 308.122 129.56C268.527 129.56 226.479 142.213 204.082 177.336C190.329 198.903 185.75 230.655 181.352 261.157C180.395 267.792 179.447 274.367 178.415 280.766C143.301 326.007 108.075 396.857 116.174 442.06C124.014 485.822 172.174 524.064 239.174 512.06C277.371 505.216 340.687 487.385 372.246 462.206Z" fill="url(#paint0_linear)"/>
<path d="M372.246 462.206L361.409 445.396L360.561 445.943L359.772 446.572L372.246 462.206ZM204.082 177.336L187.219 166.582V166.582L204.082 177.336ZM181.352 261.157L161.557 258.303L161.557 258.303L181.352 261.157ZM178.415 280.766L194.214 293.029L197.346 288.994L198.16 283.951L178.415 280.766ZM116.174 442.06L96.4871 445.587L116.174 442.06ZM239.174 512.06L242.701 531.746L239.174 512.06ZM420.174 294.01C420.174 326.834 414.575 359.284 404.113 386.446C393.567 413.827 378.734 434.227 361.409 445.396L383.083 479.015C409.935 461.704 429.066 432.949 441.44 400.824C453.897 368.48 460.174 331.072 460.174 294.01H420.174ZM308.122 149.56C366.133 149.56 420.174 209.913 420.174 294.01H460.174C460.174 196.461 395.971 109.56 308.122 109.56V149.56ZM220.945 188.089C238.063 161.246 271.709 149.56 308.122 149.56V109.56C265.346 109.56 214.895 123.181 187.219 166.582L220.945 188.089ZM201.147 264.012C203.372 248.58 205.5 233.922 208.673 220.495C211.858 207.017 215.8 196.158 220.945 188.089L187.219 166.582C178.611 180.081 173.388 195.881 169.745 211.297C166.09 226.763 163.73 243.232 161.557 258.303L201.147 264.012ZM198.16 283.951C199.223 277.359 200.195 270.615 201.147 264.012L161.557 258.303C160.596 264.968 159.671 271.376 158.67 277.581L198.16 283.951ZM135.86 438.532C132.849 421.724 137.791 397.128 149.53 369.17C160.978 341.904 177.638 314.386 194.214 293.029L162.615 268.503C144.078 292.387 125.568 322.915 112.649 353.685C100.021 383.762 91.4 417.193 96.4871 445.587L135.86 438.532ZM235.647 492.373C177.842 502.729 141.465 469.818 135.86 438.532L96.4871 445.587C106.563 501.826 166.505 545.398 242.701 531.746L235.647 492.373ZM359.772 446.572C346.698 457.003 325.576 466.865 301.682 475.1C278.194 483.195 253.823 489.116 235.647 492.373L242.701 531.746C262.721 528.159 289.107 521.743 314.716 512.917C339.919 504.231 366.234 492.588 384.719 477.839L359.772 446.572Z" fill="black" mask="url(#path-1-inside-1)"/>
<g filter="url(#filter0_b)">
<circle cx="256.174" cy="185.56" r="13" fill="white"/>
</g>
<g filter="url(#filter1_b)">
<path d="M246.037 212.191C248.595 207.296 246.7 201.254 241.805 198.697C236.91 196.139 230.869 198.033 228.311 202.928L246.037 212.191ZM212.174 275.465C212.122 280.988 216.557 285.507 222.079 285.559C227.602 285.611 232.121 281.177 232.173 275.654L212.174 275.465ZM228.311 202.928C226.469 206.454 222.148 213.114 218.647 224.44C215.144 235.771 212.399 251.685 212.174 275.465L232.173 275.654C232.385 253.305 234.958 239.395 237.755 230.346C240.554 221.291 243.515 217.016 246.037 212.191L228.311 202.928Z" fill="white"/>
</g>
<path d="M300.04 295.385C289.881 296.546 281.086 288.127 280.397 276.596C279.705 265.022 287.382 254.711 297.542 253.551C307.679 252.393 316.496 260.809 317.188 272.383C317.877 283.914 310.199 294.203 300.04 295.385Z" fill="black"/>
<path d="M294.711 273.81C290.705 274.267 287.238 270.948 286.966 266.401C286.693 261.838 289.72 257.773 293.726 257.315C297.723 256.859 301.199 260.177 301.472 264.74C301.744 269.287 298.716 273.344 294.711 273.81Z" fill="white"/>
<path d="M371.427 299.633C361.267 300.794 352.473 292.375 351.783 280.844C351.092 269.27 358.769 258.959 368.929 257.799C379.066 256.641 387.883 265.057 388.574 276.631C389.264 288.162 381.585 298.451 371.427 299.633Z" fill="black"/>
<path d="M366.098 278.059C362.092 278.516 358.625 275.197 358.353 270.65C358.08 266.087 361.107 262.022 365.113 261.564C369.11 261.108 372.586 264.426 372.859 268.989C373.131 273.536 370.103 277.593 366.098 278.059Z" fill="white"/>
<path d="M308.02 626.461L274 498.594L308.02 483.961L339.5 580.961C377.114 563.303 380.011 590.562 386 603.628L308.02 626.461Z" fill="black" stroke="black" stroke-width="5" stroke-linecap="round" stroke-linejoin="round"/>
<path d="M201.704 644.838L230.458 511.982L194.841 498.603L167.208 599.662C127.758 583.353 126.097 611.466 120.581 625.162L201.704 644.838Z" fill="black" stroke="black" stroke-width="5" stroke-linecap="round" stroke-linejoin="round"/>
<path d="M422.73 382.462L422.73 382.462C421.739 382.443 420.813 382.798 420.12 383.138C419.373 383.504 418.607 384.001 417.864 384.551C416.374 385.656 414.777 387.13 413.32 388.682C411.862 390.235 410.479 391.934 409.441 393.517C408.923 394.307 408.462 395.113 408.123 395.889C407.802 396.623 407.5 397.53 407.5 398.467C407.5 399.013 407.683 399.442 407.72 399.53C407.722 399.533 407.723 399.536 407.724 399.539C407.792 399.701 407.868 399.847 407.928 399.955C408.051 400.178 408.206 400.428 408.372 400.682C408.709 401.198 409.185 401.88 409.771 402.693C410.949 404.327 412.64 406.584 414.712 409.294C418.858 414.719 424.57 422.01 430.848 429.859L432.8 428.297L430.848 429.859L431.674 430.892C443.322 445.454 449.346 452.986 453.174 456.68C455.153 458.59 456.851 459.79 458.72 460.249C460.442 460.671 462.036 460.368 463.361 460.116C463.453 460.098 463.544 460.081 463.634 460.064C463.634 460.064 463.634 460.064 463.634 460.064L463.173 457.607L422.73 382.462ZM422.73 382.462C423.444 382.475 424.008 382.768 424.217 382.88C424.513 383.038 424.798 383.232 425.051 383.419C425.563 383.797 426.142 384.299 426.741 384.86C427.948 385.992 429.394 387.516 430.807 389.17C438.626 398.324 447.989 409.997 456.085 420.682M422.73 382.462L456.085 420.682M456.085 420.682C458.123 423.371 460.031 425.88 461.463 427.758C461.813 428.216 462.134 428.636 462.421 429.012C463.239 428.248 464.291 427.23 465.535 425.999C468.644 422.922 472.876 418.586 477.479 413.734L456.085 420.682Z" fill="black" stroke="black" stroke-width="5" stroke-linecap="round"/>
<path d="M534.387 321.42C533.424 320.355 531.34 319.024 529.85 318.521C528.393 318.029 526.29 317.813 525.453 318.07C524.386 318.398 524.276 318.686 523.979 321.908C523.459 327.569 522.839 331.094 521.814 334.225C520.338 338.731 519.32 340.159 515.053 343.712C511.45 346.712 511.077 347.233 509.084 352.055C505.531 360.652 496.236 388.693 493 391.789V412.207L493.977 412.399C494.514 412.505 496.586 412.891 498.582 413.257C500.577 413.623 504.659 414.382 507.651 414.943C513.844 416.105 514.483 416.189 520.513 416.63C523.787 416.869 527.287 416.953 534.213 416.96C544 416.97 545.489 416.869 548.018 416.023C550.271 415.27 554.433 411.759 555.608 409.622C556.137 408.659 556.168 408.48 556.259 405.825C556.323 403.98 556.44 402.89 556.608 402.596C556.747 402.353 557.843 401.135 559.045 399.89C562.282 396.537 562.398 396.012 560.815 391.895C560.344 390.669 559.911 389.274 559.853 388.795C559.724 387.726 559.997 387.216 561.91 384.95C564.518 381.863 564.537 381.653 562.521 378.225C560.963 375.577 560.642 374.764 560.807 373.888C560.87 373.549 561.551 372.405 562.32 371.346C563.088 370.288 563.806 369.123 563.916 368.759C564.629 366.391 560.659 360.013 557.593 358.599C555.389 357.583 549.209 357.169 538.174 357.298L530.599 357.386L530.377 356.394C529.907 354.299 530.867 351.307 534.151 344.626C537.267 338.285 537.717 336.697 537.729 331.996C537.742 327.161 536.754 324.035 534.387 321.42Z" fill="black"/>
<path d="M140.852 344.479L140.853 344.479C141.735 344.93 142.384 345.678 142.836 346.306C143.322 346.981 143.763 347.78 144.159 348.615C144.952 350.292 145.665 352.345 146.219 354.4C146.773 356.457 147.192 358.608 147.361 360.493C147.445 361.434 147.472 362.361 147.405 363.206C147.342 364.004 147.181 364.947 146.739 365.774C146.482 366.255 146.118 366.547 146.044 366.607C146.041 366.609 146.038 366.611 146.036 366.613C145.9 366.724 145.764 366.817 145.66 366.884C145.447 367.023 145.192 367.17 144.926 367.316C144.386 367.612 143.644 367.989 142.744 368.43C140.935 369.315 138.379 370.509 135.275 371.923C129.061 374.753 120.587 378.489 111.35 382.452L110.364 380.155L111.35 382.452L110.134 382.974C92.9974 390.326 84.1343 394.129 79.0167 395.582C76.3716 396.333 74.3074 396.591 72.443 396.115C70.7256 395.675 69.4626 394.657 68.4132 393.81C68.3401 393.751 68.268 393.693 68.1969 393.636C68.1968 393.636 68.1967 393.636 68.1966 393.636L69.761 391.686L140.852 344.479ZM140.852 344.479C140.216 344.154 139.581 344.146 139.344 344.146C139.008 344.146 138.665 344.183 138.354 344.228C137.724 344.321 136.977 344.49 136.185 344.703C134.586 345.132 132.592 345.795 130.567 346.588C119.356 350.975 105.595 356.855 93.4189 362.462M140.852 344.479L93.4189 362.462M93.4189 362.462C90.3544 363.873 87.4887 365.187 85.3407 366.167C84.8162 366.407 84.3349 366.626 83.9043 366.822C83.543 365.763 83.0949 364.369 82.5781 362.696C81.2868 358.517 79.5985 352.698 77.826 346.25L93.4189 362.462Z" fill="black" stroke="black" stroke-width="5" stroke-linecap="round"/>
<path d="M71.1551 238.009C72.5062 237.525 74.971 237.333 76.5227 237.591C78.0395 237.844 79.9961 238.646 80.6126 239.266C81.3991 240.058 81.3609 240.365 80.103 243.346C77.8933 248.584 76.7784 251.984 76.2069 255.229C75.3845 259.899 75.6087 261.638 77.6971 266.783C79.4602 271.128 79.5434 271.763 79.0281 276.955C78.1096 286.212 73.0885 315.323 74.4825 319.579L64.8577 337.586L63.9055 337.295C63.3819 337.135 61.3723 336.499 59.4399 335.881C57.5074 335.263 53.5505 334.008 50.6468 333.093C44.6376 331.198 44.0342 330.971 38.5083 328.517C35.5084 327.185 32.3818 325.609 26.27 322.35C17.6346 317.745 16.3694 316.954 14.5371 315.016C12.9056 313.29 10.8896 308.232 10.8612 305.793C10.8485 304.694 10.9058 304.522 12.0764 302.138C12.89 300.481 13.3004 299.463 13.2911 299.126C13.2835 298.845 12.8904 297.255 12.4174 295.59C11.1432 291.107 11.288 290.589 14.6249 287.705C15.6186 286.846 16.6582 285.82 16.935 285.424C17.5528 284.542 17.5524 283.964 16.9329 281.064C16.0886 277.112 16.1709 276.918 19.5654 274.844C22.1873 273.243 22.8533 272.678 23.1211 271.828C23.2248 271.499 23.1636 270.169 22.985 268.873C22.8066 267.577 22.7219 266.212 22.7969 265.838C23.2844 263.415 29.7922 259.661 33.1628 259.86C35.5855 260.002 41.2311 262.55 50.9015 267.866L57.5403 271.515L58.2046 270.744C59.6061 269.118 60.1703 266.027 60.4237 258.587C60.6643 251.526 61.0162 249.913 63.2214 245.761C65.4891 241.491 67.8344 239.2 71.1551 238.009Z" fill="black"/>
<path d="M357.243 320.899C353.913 317.901 349.37 319.434 345.396 320.114C334.332 322.011 324.752 321.482 320.159 321.178C315.566 320.874 306 320.133 295.283 316.793C291.434 315.595 287.132 313.476 283.436 316.008C278.747 319.218 281.2 332.001 287.652 340.957C291.553 346.37 300.988 356.999 317.712 358.107C334.435 359.215 345.191 349.924 349.772 345.073C357.349 337.047 361.456 324.698 357.243 320.899Z" fill="#7D3900"/>
<ellipse cx="318.452" cy="345.567" rx="18" ry="11" transform="rotate(3.54851 318.452 345.567)" fill="#FF5521"/>
<path d="M292.847 111.876C295.82 110.553 298.119 108.076 299.727 104.537C299.564 105.909 299.375 107.37 299.164 108.892C298.238 115.58 296.919 123.317 295.767 129.506C295.191 132.599 294.659 135.292 294.242 137.264C294.033 138.252 293.855 139.043 293.718 139.606C293.662 139.834 293.616 140.012 293.58 140.143C293.558 140.169 293.533 140.198 293.504 140.232C293.328 140.438 293.075 140.716 292.741 141.066C292.077 141.765 291.166 142.679 290.079 143.743C287.909 145.869 285.101 148.533 282.313 151.149C279.527 153.762 276.772 156.317 274.713 158.219C273.683 159.169 272.828 159.957 272.23 160.506C272.12 160.607 272.019 160.7 271.927 160.785L238.177 163.436L224.956 119.322C225.674 118.693 226.627 117.805 227.702 116.665C230.003 114.226 232.892 110.605 235.235 105.876C238.737 98.8092 240.958 89.3753 238.361 77.931C238.363 77.9335 238.365 77.936 238.368 77.9384C243.74 83.7929 251.056 91.3052 258.766 97.8478C266.4 104.325 274.712 110.109 282.055 112.161C285.768 113.198 289.513 113.36 292.847 111.876ZM293.518 140.349C293.518 140.349 293.519 140.345 293.523 140.336C293.52 140.345 293.518 140.349 293.518 140.349Z" fill="#C8832E" stroke="black" stroke-width="5"/>
<path d="M351.686 154.519L317.92 157.171C317.816 157.102 317.702 157.026 317.577 156.943C316.901 156.494 315.934 155.85 314.768 155.072C312.437 153.515 309.317 151.422 306.159 149.275C302.997 147.127 299.809 144.934 297.337 143.174C296.098 142.292 295.057 141.532 294.295 140.946C293.913 140.652 293.62 140.417 293.417 140.243C293.382 140.213 293.352 140.187 293.327 140.165C293.27 140.041 293.196 139.871 293.104 139.651C292.88 139.117 292.58 138.364 292.219 137.421C291.497 135.539 290.55 132.962 289.497 129.997C287.391 124.065 284.878 116.628 282.918 110.167C282.474 108.704 282.06 107.296 281.686 105.971C283.826 109.206 286.48 111.288 289.619 112.129C293.143 113.075 296.817 112.33 300.323 110.726C307.257 107.553 314.565 100.541 321.095 92.9515C327.689 85.2853 333.743 76.7227 338.136 70.1012C338.136 70.1007 338.137 70.1002 338.137 70.0997C337.357 81.8062 341.024 90.7755 345.587 97.208C348.641 101.513 352.062 104.638 354.717 106.688C355.957 107.646 357.038 108.374 357.846 108.884L351.686 154.519ZM293.41 140.338C293.415 140.346 293.417 140.351 293.417 140.351C293.417 140.351 293.415 140.347 293.41 140.338Z" fill="#C8832E" stroke="black" stroke-width="5"/>
<path d="M243.684 67.6385C244.11 73.0703 240.244 77.6148 235.286 78.0043C230.313 78.3949 225.799 74.5111 225.372 69.0769C224.945 63.6454 228.801 59.0847 233.769 58.6945C238.726 58.3052 243.257 62.2052 243.684 67.6385Z" fill="#C8832E" stroke="black" stroke-width="5"/>
<path d="M349.607 59.3182C350.033 64.7412 346.166 69.2945 341.196 69.6849C336.226 70.0753 331.696 66.1815 331.27 60.7585C330.844 55.3355 334.711 50.7822 339.681 50.3918C344.651 50.0014 349.181 53.8952 349.607 59.3182Z" fill="#C8832E" stroke="black" stroke-width="5"/>
<mask id="path-21-inside-2" fill="white">
<path fill-rule="evenodd" clip-rule="evenodd" d="M403.256 42.9412C394.331 43.6422 387.727 52.1403 388.496 61.9379C388.701 64.5495 389.437 66.9856 390.539 69.1417C366.674 85.4687 345.191 109.475 345.191 109.475C325.985 135.516 305.759 97.1158 294.038 67.3828C305.147 63.2841 312.681 51.3238 311.622 37.8417C310.367 21.8602 297.555 9.83269 282.992 10.9767C268.433 12.1203 257.652 26.001 258.908 41.9824C259.983 55.6766 269.551 66.4191 281.437 68.5316C274.482 99.7358 260.516 140.65 237.536 117.952C237.536 117.952 212.567 97.5949 186.421 85.1964C187.211 82.8022 187.518 80.2749 187.323 77.7613C186.553 67.9637 178.694 60.6017 169.778 61.302C160.858 62.0027 154.249 70.5012 155.019 80.2988C155.788 90.0964 163.648 97.4667 172.564 96.7664C175.558 96.5312 178.24 95.3623 180.53 93.6134C191.39 112.338 207.312 146.281 202.954 178.901C202.954 178.901 216.266 218.672 298.981 210.798C381.907 205.661 388.834 164.3 388.834 164.3C379.445 132.773 389.868 96.7685 397.678 76.5561C400.213 77.9261 403.045 78.6618 406.039 78.4266C414.959 77.726 421.571 69.2188 420.802 59.4212C420.032 49.6236 412.177 42.2571 403.257 42.9578"/>
</mask>
<path fill-rule="evenodd" clip-rule="evenodd" d="M403.256 42.9412C394.331 43.6422 387.727 52.1403 388.496 61.9379C388.701 64.5495 389.437 66.9856 390.539 69.1417C366.674 85.4687 345.191 109.475 345.191 109.475C325.985 135.516 305.759 97.1158 294.038 67.3828C305.147 63.2841 312.681 51.3238 311.622 37.8417C310.367 21.8602 297.555 9.83269 282.992 10.9767C268.433 12.1203 257.652 26.001 258.908 41.9824C259.983 55.6766 269.551 66.4191 281.437 68.5316C274.482 99.7358 260.516 140.65 237.536 117.952C237.536 117.952 212.567 97.5949 186.421 85.1964C187.211 82.8022 187.518 80.2749 187.323 77.7613C186.553 67.9637 178.694 60.6017 169.778 61.302C160.858 62.0027 154.249 70.5012 155.019 80.2988C155.788 90.0964 163.648 97.4667 172.564 96.7664C175.558 96.5312 178.24 95.3623 180.53 93.6134C191.39 112.338 207.312 146.281 202.954 178.901C202.954 178.901 216.266 218.672 298.981 210.798C381.907 205.661 388.834 164.3 388.834 164.3C379.445 132.773 389.868 96.7685 397.678 76.5561C400.213 77.9261 403.045 78.6618 406.039 78.4266C414.959 77.726 421.571 69.2188 420.802 59.4212C420.032 49.6236 412.177 42.2571 403.257 42.9578" fill="#FFD500"/>
<path d="M390.539 69.1417L396.186 77.395L403.449 72.4255L399.443 64.5892L390.539 69.1417ZM345.191 109.475L337.739 102.806L337.424 103.159L337.143 103.539L345.191 109.475ZM294.038 67.3828L290.577 58.0009L280.986 61.5395L284.735 71.0501L294.038 67.3828ZM281.437 68.5316L291.198 70.7071L293.47 60.5134L283.187 58.6859L281.437 68.5316ZM237.536 117.952L244.563 110.838L244.224 110.503L243.855 110.202L237.536 117.952ZM186.421 85.1964L176.925 82.0628L174.158 90.4484L182.137 94.2319L186.421 85.1964ZM187.323 77.7613L197.293 76.9877L197.292 76.9782L187.323 77.7613ZM180.53 93.6134L189.18 88.5962L183.483 78.7735L174.459 85.6667L180.53 93.6134ZM202.954 178.901L193.042 177.576L192.735 179.875L193.471 182.075L202.954 178.901ZM298.981 210.798L298.363 200.817L298.198 200.828L298.033 200.843L298.981 210.798ZM388.834 164.3L398.696 165.951L399.079 163.666L398.418 161.446L388.834 164.3ZM397.678 76.5561L402.433 67.7591L392.443 62.359L388.35 72.9518L397.678 76.5561ZM402.472 32.9719C387.19 34.1724 377.395 48.3105 378.527 62.721L398.465 61.1548C398.058 55.9702 401.473 53.112 404.039 52.9105L402.472 32.9719ZM378.527 62.721C378.841 66.715 379.965 70.4264 381.635 73.6942L399.443 64.5892C398.909 63.5448 398.562 62.3841 398.465 61.1548L378.527 62.721ZM384.893 60.8884C372.313 69.4944 360.526 79.9998 351.98 88.2268C347.682 92.365 344.148 95.9806 341.68 98.5714C340.445 99.8678 339.475 100.91 338.806 101.636C338.471 101.999 338.212 102.284 338.033 102.481C337.943 102.58 337.874 102.657 337.824 102.712C337.8 102.739 337.78 102.76 337.766 102.776C337.759 102.784 337.753 102.791 337.749 102.796C337.747 102.798 337.745 102.8 337.743 102.802C337.742 102.803 337.741 102.804 337.741 102.804C337.74 102.805 337.739 102.806 345.191 109.475C352.643 116.144 352.642 116.144 352.642 116.145C352.642 116.145 352.641 116.145 352.641 116.146C352.641 116.146 352.641 116.146 352.641 116.145C352.642 116.145 352.644 116.142 352.647 116.139C352.654 116.131 352.666 116.118 352.683 116.1C352.716 116.062 352.77 116.003 352.844 115.921C352.991 115.759 353.216 115.512 353.516 115.187C354.115 114.536 355.009 113.576 356.161 112.366C358.467 109.946 361.796 106.539 365.851 102.635C374.013 94.7772 384.9 85.116 396.186 77.395L384.893 60.8884ZM337.143 103.539C335.305 106.032 333.865 107.183 332.986 107.687C332.227 108.122 331.831 108.121 331.583 108.1C330.696 108.026 328.21 107.131 324.289 102.709C316.646 94.0904 309.188 78.5478 303.341 63.7154L284.735 71.0501C290.609 85.9508 299.124 104.475 309.326 115.979C314.327 121.619 321.232 127.3 329.905 128.03C339.467 128.835 347.308 123.451 353.239 115.411L337.143 103.539ZM297.499 76.7646C313.198 70.9728 322.967 54.5762 321.591 37.0586L301.653 38.6248C302.395 48.0713 297.097 55.5954 290.577 58.0009L297.499 76.7646ZM321.591 37.0586C319.974 16.4688 303.135 -0.636379 282.209 1.00737L283.775 20.946C291.976 20.3018 300.759 27.2517 301.653 38.6248L321.591 37.0586ZM282.209 1.00737C261.288 2.65072 247.321 22.1747 248.939 42.7655L268.877 41.1993C267.984 29.8273 275.577 21.5899 283.775 20.946L282.209 1.00737ZM248.939 42.7655C250.336 60.5562 262.894 75.3927 279.688 78.3773L283.187 58.6859C276.209 57.4456 269.631 50.797 268.877 41.1993L248.939 42.7655ZM271.677 66.3561C268.207 81.924 263.267 98.3957 257.076 108.061C253.9 113.018 251.598 114.271 250.748 114.478C250.512 114.535 250.123 114.598 249.307 114.285C248.361 113.923 246.763 113.011 244.563 110.838L230.508 125.067C237.602 132.073 246.168 136.175 255.476 133.911C263.926 131.855 269.858 125.184 273.916 118.849C282.192 105.931 287.713 86.3433 291.198 70.7071L271.677 66.3561ZM237.536 117.952C243.855 110.202 243.854 110.201 243.853 110.2C243.852 110.2 243.851 110.199 243.85 110.198C243.848 110.197 243.846 110.195 243.844 110.193C243.838 110.189 243.832 110.183 243.823 110.176C243.807 110.163 243.784 110.145 243.756 110.122C243.699 110.075 243.618 110.01 243.514 109.927C243.306 109.759 243.005 109.519 242.618 109.213C241.844 108.6 240.722 107.722 239.3 106.634C236.457 104.46 232.401 101.44 227.507 98.0242C217.778 91.2322 204.488 82.6963 190.706 76.1608L182.137 94.2319C194.501 100.095 206.768 107.937 216.059 114.423C220.676 117.646 224.496 120.491 227.152 122.522C228.478 123.536 229.512 124.345 230.205 124.894C230.552 125.168 230.813 125.378 230.984 125.515C231.069 125.583 231.131 125.634 231.17 125.665C231.19 125.681 231.204 125.692 231.211 125.699C231.215 125.702 231.217 125.704 231.218 125.704C231.219 125.705 231.219 125.705 231.218 125.704C231.218 125.704 231.218 125.704 231.218 125.704C231.217 125.703 231.216 125.703 237.536 117.952ZM195.918 88.3299C197.123 84.6776 197.59 80.8222 197.293 76.9877L177.353 78.5348C177.445 79.7276 177.3 80.9268 176.925 82.0628L195.918 88.3299ZM197.292 76.9782C196.16 62.5641 184.266 50.1332 168.995 51.3328L170.561 71.2713C173.122 71.0702 176.946 73.3632 177.353 78.5444L197.292 76.9782ZM168.995 51.3328C153.718 52.5328 143.917 66.6696 145.049 81.0819L164.988 79.5157C164.581 74.3328 167.998 71.4727 170.561 71.2713L168.995 51.3328ZM145.049 81.0819C146.181 95.4896 158.07 107.936 173.347 106.736L171.781 86.7971C169.226 86.9978 165.396 84.7032 164.988 79.5157L145.049 81.0819ZM173.347 106.736C178.532 106.328 183.011 104.302 186.6 101.56L174.459 85.6667C173.47 86.4225 172.584 86.734 171.781 86.7971L173.347 106.736ZM171.88 98.6305C182.574 117.07 196.929 148.483 193.042 177.576L212.866 180.225C217.695 144.08 200.206 107.606 189.18 88.5962L171.88 98.6305ZM202.954 178.901C193.471 182.075 193.474 182.084 193.477 182.093C193.478 182.097 193.481 182.106 193.483 182.113C193.488 182.126 193.493 182.14 193.498 182.154C193.508 182.183 193.518 182.214 193.53 182.248C193.554 182.316 193.582 182.393 193.614 182.48C193.678 182.654 193.76 182.866 193.86 183.113C194.061 183.607 194.339 184.243 194.708 184.996C195.447 186.503 196.554 188.485 198.152 190.752C201.359 195.305 206.499 200.943 214.467 206.166C230.5 216.675 256.934 224.846 299.929 220.753L298.033 200.843C258.314 204.624 236.733 196.847 225.431 189.439C219.732 185.703 216.374 181.891 214.501 179.232C213.558 177.894 212.979 176.83 212.666 176.193C212.51 175.874 212.421 175.663 212.386 175.578C212.369 175.536 212.366 175.525 212.375 175.549C212.379 175.561 212.387 175.582 212.397 175.611C212.402 175.626 212.408 175.643 212.415 175.662C212.418 175.672 212.421 175.682 212.425 175.693C212.427 175.698 212.43 175.706 212.431 175.709C212.434 175.718 212.436 175.727 202.954 178.901ZM299.599 220.779C342.704 218.109 367.534 205.911 381.726 193.027C388.78 186.623 392.974 180.251 395.43 175.253C396.654 172.764 397.437 170.634 397.931 169.03C398.178 168.228 398.353 167.557 398.474 167.038C398.535 166.778 398.582 166.556 398.618 166.374C398.636 166.283 398.652 166.202 398.665 166.132C398.671 166.096 398.677 166.064 398.682 166.034C398.685 166.019 398.687 166.004 398.69 165.991C398.691 165.984 398.692 165.974 398.693 165.971C398.695 165.961 398.696 165.951 388.834 164.3C378.971 162.648 378.973 162.639 378.974 162.63C378.975 162.627 378.976 162.618 378.977 162.613C378.979 162.601 378.981 162.591 378.983 162.581C378.986 162.561 378.989 162.543 378.992 162.528C378.998 162.497 379.002 162.475 379.004 162.463C379.009 162.438 379.008 162.449 378.997 162.493C378.976 162.582 378.921 162.805 378.817 163.144C378.608 163.822 378.203 164.963 377.481 166.432C376.047 169.35 373.327 173.64 368.283 178.218C358.28 187.299 338.183 198.351 298.363 200.817L299.599 220.779ZM398.418 161.446C390.044 133.327 399.314 100.067 407.006 80.1604L388.35 72.9518C380.422 93.4703 368.846 132.218 379.25 167.154L398.418 161.446ZM392.923 85.3531C396.897 87.5011 401.637 88.8032 406.822 88.3959L405.256 68.4573C404.452 68.5205 403.529 68.3511 402.433 67.7591L392.923 85.3531ZM406.822 88.3959C422.101 87.1957 431.903 73.0476 430.771 58.6381L410.832 60.2043C411.24 65.3901 407.817 68.2562 405.256 68.4573L406.822 88.3959ZM430.771 58.6381C429.639 44.229 417.753 31.7883 402.474 32.9885L404.04 52.9271C406.601 52.726 410.425 55.0183 410.832 60.2043L430.771 58.6381Z" fill="black" mask="url(#path-21-inside-2)"/>
<path d="M294.924 158.955L302.992 171.544L318.864 172.406L308.284 183.513L312.113 197.736L297.521 192.016L284.017 199.943L285.57 185.298L273.398 175.977L288.928 172.649L294.924 158.955Z" fill="white"/>
<path d="M295.209 165.887C294.943 163.671 294.902 161.434 295.086 159.21L294.936 158.954L288.936 172.64L273.398 175.977L285.553 185.291L284.013 199.943L297.534 192.028L312.104 197.737L310.492 191.696C301.93 185.343 296.402 176.024 295.209 165.887Z" fill="white"/>
<path d="M350.413 161.773L355.37 169.471L365.086 170.014L358.628 176.81L360.942 185.545L352.007 182.062L343.725 186.897L344.676 177.906L337.224 172.202L346.761 170.148L350.413 161.773Z" fill="white"/>
<path d="M350.583 166.019C350.425 164.661 350.403 163.29 350.517 161.928L350.421 161.772L346.749 170.153L337.224 172.202L344.676 177.91L343.738 186.9L352.016 182.066L360.946 185.548L359.961 181.843C354.713 177.942 351.321 172.216 350.583 166.019Z" fill="white"/>
<path d="M240.191 170.431L245.118 178.132L254.839 178.674L248.373 185.471L250.716 194.203L241.785 190.72L233.503 195.555L234.454 186.564L226.989 180.861L236.506 178.808L240.191 170.431Z" fill="white"/>
<path d="M240.349 174.678C240.174 173.321 240.155 171.948 240.291 170.586L240.191 170.431L236.506 178.813L226.989 180.861L234.438 186.569L233.5 195.56L241.781 190.725L250.712 194.208L249.718 190.503C244.47 186.601 241.083 180.876 240.349 174.678Z" fill="white"/>
<defs>
<filter id="filter0_b" x="239.174" y="168.56" width="34" height="34" filterUnits="userSpaceOnUse" color-interpolation-filters="sRGB">
<feFlood flood-opacity="0" result="BackgroundImageFix"/>
<feGaussianBlur in="BackgroundImage" stdDeviation="2"/>
<feComposite in2="SourceAlpha" operator="in" result="effect1_backgroundBlur"/>
<feBlend mode="normal" in="SourceGraphic" in2="effect1_backgroundBlur" result="shape"/>
</filter>
<filter id="filter1_b" x="208.174" y="193.558" width="43.0021" height="96.0021" filterUnits="userSpaceOnUse" color-interpolation-filters="sRGB">
<feFlood flood-opacity="0" result="BackgroundImageFix"/>
<feGaussianBlur in="BackgroundImage" stdDeviation="2"/>
<feComposite in2="SourceAlpha" operator="in" result="effect1_backgroundBlur"/>
<feBlend mode="normal" in="SourceGraphic" in2="effect1_backgroundBlur" result="shape"/>
</filter>
<linearGradient id="paint0_linear" x1="268.174" y1="345.56" x2="172.674" y2="488.06" gradientUnits="userSpaceOnUse">
<stop stop-color="#FFA200"/>
<stop offset="0.609375" stop-color="#FFCC22"/>
<stop offset="1" stop-color="#FFEA47"/>
</linearGradient>
</defs>
</svg>
